<svg xmlns="http://www.w3.org/2000/svg" xmlns:xlink="http://www.w3.org/1999/xlink" xmlns:lucid="lucid" width="1700.83" height="921"><g transform="translate(-279.6678186666668 -159.5)" lucid:page-tab-id="0_0"><path d="M0 0h2000v1500H0z" fill="#fff"/><path d="M680 390.78a5 5 0 0 1 5-5h350a5 5 0 0 1 5 5v286a5 5 0 0 1-5 5H685a5 5 0 0 1-5-5z" fill="#fff"/><path d="M680 425.78v-35a5 5 0 0 1 5-5h350a5 5 0 0 1 5 5v35" fill="#dedeff"/><path d="M680 390.78a5 5 0 0 1 5-5h350a5 5 0 0 1 5 5v286a5 5 0 0 1-5 5H685a5 5 0 0 1-5-5zM680 425.78h360M860 425.78v256" stroke="#282c33" fill="none"/><use xlink:href="#a" transform="matrix(1,0,0,1,690,385.77759693823134) translate(0 23.6)"/><use xlink:href="#b" transform="matrix(1,0,0,1,685,428.27759693823134) translate(0 17.1)"/><use xlink:href="#c" transform="matrix(1,0,0,1,865,428.27759693823134) translate(0 17.1)"/><use xlink:href="#d" transform="matrix(1,0,0,1,865,428.27759693823134) translate(34 17.1)"/><use xlink:href="#e" transform="matrix(1,0,0,1,685,460.27759693823134) translate(0 17.1)"/><use xlink:href="#f" transform="matrix(1,0,0,1,865,460.27759693823134) translate(0 17.1)"/><use xlink:href="#d" transform="matrix(1,0,0,1,865,460.27759693823134) translate(52.95 17.1)"/><use xlink:href="#g" transform="matrix(1,0,0,1,685,492.27759693823134) translate(0 17.1)"/><use xlink:href="#h" transform="matrix(1,0,0,1,865,492.27759693823134) translate(0 17.1)"/><use xlink:href="#i" transform="matrix(1,0,0,1,685,524.2775969382313) translate(0 17.1)"/><use xlink:href="#j" transform="matrix(1,0,0,1,865,524.2775969382313) translate(0 17.1)"/><use xlink:href="#k" transform="matrix(1,0,0,1,865,524.2775969382313) translate(47.9 17.1)"/><use xlink:href="#l" transform="matrix(1,0,0,1,865,524.2775969382313) translate(67.9 17.1)"/><use xlink:href="#m" transform="matrix(1,0,0,1,865,524.2775969382313) translate(119.80000000000001 17.1)"/><use xlink:href="#n" transform="matrix(1,0,0,1,685,556.2775969382313) translate(0 17.1)"/><use xlink:href="#h" transform="matrix(1,0,0,1,865,556.2775969382313) translate(0 17.1)"/><use xlink:href="#o" transform="matrix(1,0,0,1,685,588.2775969382313) translate(0 17.1)"/><use xlink:href="#p" transform="matrix(1,0,0,1,865,588.2775969382313) translate(0 17.1)"/><use xlink:href="#q" transform="matrix(1,0,0,1,685,620.2775969382313) translate(0 17.1)"/><use xlink:href="#f" transform="matrix(1,0,0,1,865,620.2775969382313) translate(0 17.1)"/><use xlink:href="#d" transform="matrix(1,0,0,1,865,620.2775969382313) translate(52.95 17.1)"/><use xlink:href="#r" transform="matrix(1,0,0,1,685,652.2775969382313) translate(0 17.1)"/><use xlink:href="#s" transform="matrix(1,0,0,1,865,652.2775969382313) translate(0 17.1)"/><use xlink:href="#d" transform="matrix(1,0,0,1,865,652.2775969382313) translate(32.95 17.1)"/><path d="M680 185a5 5 0 0 1 5-5h350a5 5 0 0 1 5 5v94a5 5 0 0 1-5 5H685a5 5 0 0 1-5-5z" fill="#fff"/><path d="M680 220v-35a5 5 0 0 1 5-5h350a5 5 0 0 1 5 5v35" fill="#dedeff"/><path d="M680 185a5 5 0 0 1 5-5h350a5 5 0 0 1 5 5v94a5 5 0 0 1-5 5H685a5 5 0 0 1-5-5zM680 220h360M860 220v64" stroke="#282c33" fill="none"/><use xlink:href="#t" transform="matrix(1,0,0,1,690,180) translate(0 23.6)"/><use xlink:href="#r" transform="matrix(1,0,0,1,685,222.5) translate(0 17.1)"/><use xlink:href="#c" transform="matrix(1,0,0,1,865,222.5) translate(0 17.1)"/><use xlink:href="#d" transform="matrix(1,0,0,1,865,222.5) translate(34 17.1)"/><use xlink:href="#u" transform="matrix(1,0,0,1,685,254.5) translate(0 17.1)"/><use xlink:href="#h" transform="matrix(1,0,0,1,865,254.5) translate(0 17.1)"/><path d="M300.17 390.78a5 5 0 0 1 5-5h249.5a5 5 0 0 1 5 5v94a5 5 0 0 1-5 5h-249.5a5 5 0 0 1-5-5z" fill="#fff"/><path d="M300.17 425.78v-35a5 5 0 0 1 5-5h249.5a5 5 0 0 1 5 5v35" fill="#dedeff"/><path d="M300.17 390.78a5 5 0 0 1 5-5h249.5a5 5 0 0 1 5 5v94a5 5 0 0 1-5 5h-249.5a5 5 0 0 1-5-5zM300.17 425.78h259.5M438.45 425.78v64" stroke="#282c33" fill="none"/><use xlink:href="#v" transform="matrix(1,0,0,1,310.1678186666668,385.77759693823134) translate(0 23.6)"/><use xlink:href="#w" transform="matrix(1,0,0,1,305.1678186666668,428.27759693823134) translate(0 17.1)"/><use xlink:href="#c" transform="matrix(1,0,0,1,443.44765324252825,428.27759693823134) translate(0 17.1)"/><use xlink:href="#d" transform="matrix(1,0,0,1,443.44765324252825,428.27759693823134) translate(34 17.1)"/><use xlink:href="#x" transform="matrix(1,0,0,1,305.1678186666668,460.27759693823134) translate(0 17.1)"/><use xlink:href="#h" transform="matrix(1,0,0,1,443.44765324252825,460.27759693823134) translate(0 17.1)"/><path d="M1160.33 390.78a5 5 0 0 1 5-5H1495a5 5 0 0 1 5 5v350a5 5 0 0 1-5 5h-329.67a5 5 0 0 1-5-5z" fill="#fff"/><path d="M1160.33 425.78v-35a5 5 0 0 1 5-5H1495a5 5 0 0 1 5 5v35" fill="#b8f5ed"/><path d="M1160.33 390.78a5 5 0 0 1 5-5H1495a5 5 0 0 1 5 5v350a5 5 0 0 1-5 5h-329.67a5 5 0 0 1-5-5zM1160.33 425.78H1500M1328 425.78v320" stroke="#282c33" fill="none"/><use xlink:href="#y" transform="matrix(1,0,0,1,1170.3321813333332,385.77759693823134) translate(0 23.6)"/><use xlink:href="#z" transform="matrix(1,0,0,1,1165.3321813333332,428.27759693823134) translate(0 17.1)"/><use xlink:href="#A" transform="matrix(1,0,0,1,1333.0000000000002,428.27759693823134) translate(0 17.1)"/><use xlink:href="#B" transform="matrix(1,0,0,1,1165.3321813333332,460.27759693823134) translate(0 17.1)"/><use xlink:href="#C" transform="matrix(1,0,0,1,1333.0000000000002,460.27759693823134) translate(0 17.1)"/><use xlink:href="#d" transform="matrix(1,0,0,1,1333.0000000000002,460.27759693823134) translate(32.95 17.1)"/><use xlink:href="#b" transform="matrix(1,0,0,1,1165.3321813333332,492.27759693823134) translate(0 17.1)"/><use xlink:href="#C" transform="matrix(1,0,0,1,1333.0000000000002,492.27759693823134) translate(0 17.1)"/><use xlink:href="#d" transform="matrix(1,0,0,1,1333.0000000000002,492.27759693823134) translate(32.95 17.1)"/><use xlink:href="#D" transform="matrix(1,0,0,1,1165.3321813333332,524.2775969382313) translate(0 17.1)"/><use xlink:href="#E" transform="matrix(1,0,0,1,1333.0000000000002,524.2775969382313) translate(0 17.1)"/><use xlink:href="#F" transform="matrix(1,0,0,1,1165.3321813333332,556.2775969382313) translate(0 17.1)"/><use xlink:href="#E" transform="matrix(1,0,0,1,1333.0000000000002,556.2775969382313) translate(0 17.1)"/><use xlink:href="#G" transform="matrix(1,0,0,1,1165.3321813333332,588.2775969382313) translate(0 17.1)"/><use xlink:href="#h" transform="matrix(1,0,0,1,1333.0000000000002,588.2775969382313) translate(0 17.1)"/><use xlink:href="#H" transform="matrix(1,0,0,1,1165.3321813333332,620.2775969382313) translate(0 17.1)"/><use xlink:href="#E" transform="matrix(1,0,0,1,1333.0000000000002,620.2775969382313) translate(0 17.1)"/><use xlink:href="#I" transform="matrix(1,0,0,1,1165.3321813333332,652.2775969382313) translate(0 17.1)"/><use xlink:href="#h" transform="matrix(1,0,0,1,1333.0000000000002,652.2775969382313) translate(0 17.1)"/><use xlink:href="#J" transform="matrix(1,0,0,1,1165.3321813333332,684.2775969382313) translate(0 17.1)"/><use xlink:href="#E" transform="matrix(1,0,0,1,1333.0000000000002,684.2775969382313) translate(0 17.1)"/><use xlink:href="#K" transform="matrix(1,0,0,1,1165.3321813333332,716.2775969382313) translate(0 17.1)"/><use xlink:href="#s" transform="matrix(1,0,0,1,1333.0000000000002,716.2775969382313) translate(0 17.1)"/><use xlink:href="#L" transform="matrix(1,0,0,1,1333.0000000000002,716.2775969382313) translate(32.95 17.1)"/><path d="M1140.42 473.78h-79.92M1159.6 473.78h-20m20-10l-20 10m20 10l-20-10M1040.5 473.78h20m0 10v-20" stroke="#333" fill="none"/><path d="M1620.33 390.78a5 5 0 0 1 5-5H1955a5 5 0 0 1 5 5v94a5 5 0 0 1-5 5h-329.67a5 5 0 0 1-5-5z" fill="#fff"/><path d="M1620.33 425.78v-35a5 5 0 0 1 5-5H1955a5 5 0 0 1 5 5v35" fill="#dedeff"/><path d="M1620.33 390.78a5 5 0 0 1 5-5H1955a5 5 0 0 1 5 5v94a5 5 0 0 1-5 5h-329.67a5 5 0 0 1-5-5zM1620.33 425.78H1960M1790.17 425.78v64" stroke="#282c33" fill="none"/><use xlink:href="#M" transform="matrix(1,0,0,1,1630.3321813333332,385.77759693823134) translate(0 23.6)"/><use xlink:href="#B" transform="matrix(1,0,0,1,1625.3321813333332,428.27759693823134) translate(0 17.1)"/><use xlink:href="#c" transform="matrix(1,0,0,1,1795.1660906666666,428.27759693823134) translate(0 17.1)"/><use xlink:href="#d" transform="matrix(1,0,0,1,1795.1660906666666,428.27759693823134) translate(34 17.1)"/><use xlink:href="#N" transform="matrix(1,0,0,1,1625.3321813333332,460.27759693823134) translate(0 17.1)"/><use xlink:href="#h" transform="matrix(1,0,0,1,1795.1660906666666,460.27759693823134) translate(0 17.1)"/><path d="M1519.9 473.78h40.27v-.02h39.66M1500.72 473.78h20m-20 10l20-10m-20-10l20 10M1619.83 473.75h-20m0-10v20M660.1 473.78H579.57M679.28 473.78h-20m20-10l-20 10m20 10l-20-10M560.4 473.78h20m-20 10l20-10m-20-10l20 10M860 365.87V304.5M860 385.05v-20m10 20l-10-20m-10 20l10-20M860 284.5v20m-10 0h20" stroke="#333" fill="none"/><path d="M1160.33 865a5 5 0 0 1 5-5H1495a5 5 0 0 1 5 5v190a5 5 0 0 1-5 5h-329.67a5 5 0 0 1-5-5z" fill="#fff"/><path d="M1160.33 900v-35a5 5 0 0 1 5-5H1495a5 5 0 0 1 5 5v35" fill="#dedeff"/><path d="M1160.33 865a5 5 0 0 1 5-5H1495a5 5 0 0 1 5 5v190a5 5 0 0 1-5 5h-329.67a5 5 0 0 1-5-5zM1160.33 900H1500M1330.17 900v160" stroke="#282c33" fill="none"/><use xlink:href="#O" transform="matrix(1,0,0,1,1170.3321813333332,860) translate(0 23.6)"/><use xlink:href="#P" transform="matrix(1,0,0,1,1165.3321813333332,902.5) translate(0 17.1)"/><g><use xlink:href="#c" transform="matrix(1,0,0,1,1335.1660906666666,902.5) translate(0 17.1)"/><use xlink:href="#L" transform="matrix(1,0,0,1,1335.1660906666666,902.5) translate(34 17.1)"/></g><g><use xlink:href="#Q" transform="matrix(1,0,0,1,1165.3321813333332,934.5) translate(0 17.1)"/></g><g><use xlink:href="#R" transform="matrix(1,0,0,1,1335.1660906666666,934.5) translate(0 17.1)"/></g><g><use xlink:href="#S" transform="matrix(1,0,0,1,1165.3321813333332,966.5) translate(0 17.1)"/></g><g><use xlink:href="#T" transform="matrix(1,0,0,1,1335.1660906666666,966.5) translate(0 17.1)"/></g><g><use xlink:href="#U" transform="matrix(1,0,0,1,1165.3321813333332,998.5) translate(0 17.1)"/></g><g><use xlink:href="#h" transform="matrix(1,0,0,1,1335.1660906666666,998.5) translate(0 17.1)"/></g><g><use xlink:href="#V" transform="matrix(1,0,0,1,1165.3321813333332,1030.5) translate(0 17.1)"/></g><g><use xlink:href="#V" transform="matrix(1,0,0,1,1335.1660906666666,1030.5) translate(0 17.1)"/></g><path d="M1330.17 839.5v-36.4a.2.2 0 0 1 .2-.2.2.2 0 0 0 .2-.2v-37M1330.17 859.5v-20m10 0h-20M1330.57 746.5v20m-10-20l10 20m10-20l-10 20" stroke="#3a414a" fill="none"/><defs><path fill="#333" d="M85-194c31 0 48 13 60 33l-1-100h32l1 261h-30c-2-10 0-23-3-31C134-8 116 4 85 4 32 4 16-35 15-94c0-66 23-100 70-100zm9 24c-40 0-46 34-46 75 0 40 6 74 45 74 42 0 51-32 51-76 0-42-9-74-50-73" id="W"/><path fill="#333" d="M24-231v-30h32v30H24zM24 0v-190h32V0H24" id="X"/><path fill="#333" d="M210-169c-67 3-38 105-44 169h-31v-121c0-29-5-50-35-48C34-165 62-65 56 0H25l-1-190h30c1 10-1 24 2 32 10-44 99-50 107 0 11-21 27-35 58-36 85-2 47 119 55 194h-31v-121c0-29-5-49-35-48" id="Y"/><path fill="#333" d="M-5 72V49h209v23H-5" id="Z"/><path fill="#333" d="M115-194c55 1 70 41 70 98S169 2 115 4C84 4 66-9 55-30l1 105H24l-1-265h31l2 30c10-21 28-34 59-34zm-8 174c40 0 45-34 45-75s-6-73-45-74c-42 0-51 32-51 76 0 43 10 73 51 73" id="aa"/><path fill="#333" d="M114-163C36-179 61-72 57 0H25l-1-190h30c1 12-1 29 2 39 6-27 23-49 58-41v29" id="ab"/><path fill="#333" d="M100-194c62-1 85 37 85 99 1 63-27 99-86 99S16-35 15-95c0-66 28-99 85-99zM99-20c44 1 53-31 53-75 0-43-8-75-51-75s-53 32-53 75 10 74 51 75" id="ac"/><path fill="#333" d="M84 4C-5 8 30-112 23-190h32v120c0 31 7 50 39 49 72-2 45-101 50-169h31l1 190h-30c-1-10 1-25-2-33-11 22-28 36-60 37" id="ad"/><path fill="#333" d="M96-169c-40 0-48 33-48 73s9 75 48 75c24 0 41-14 43-38l32 2c-6 37-31 61-74 61-59 0-76-41-82-99-10-93 101-131 147-64 4 7 5 14 7 22l-32 3c-4-21-16-35-41-35" id="ae"/><path fill="#333" d="M59-47c-2 24 18 29 38 22v24C64 9 27 4 27-40v-127H5v-23h24l9-43h21v43h35v23H59v120" id="af"/><g id="a"><use transform="matrix(0.05,0,0,0.05,0,0)" xlink:href="#W"/><use transform="matrix(0.05,0,0,0.05,10,0)" xlink:href="#X"/><use transform="matrix(0.05,0,0,0.05,13.949999999999998,0)" xlink:href="#Y"/><use transform="matrix(0.05,0,0,0.05,28.899999999999995,0)" xlink:href="#Z"/><use transform="matrix(0.05,0,0,0.05,38.9,0)" xlink:href="#aa"/><use transform="matrix(0.05,0,0,0.05,48.9,0)" xlink:href="#ab"/><use transform="matrix(0.05,0,0,0.05,54.85,0)" xlink:href="#ac"/><use transform="matrix(0.05,0,0,0.05,64.85,0)" xlink:href="#W"/><use transform="matrix(0.05,0,0,0.05,74.85,0)" xlink:href="#ad"/><use transform="matrix(0.05,0,0,0.05,84.85,0)" xlink:href="#ae"/><use transform="matrix(0.05,0,0,0.05,93.85,0)" xlink:href="#af"/></g><g id="b"><use transform="matrix(0.05,0,0,0.05,0,0)" xlink:href="#aa"/><use transform="matrix(0.05,0,0,0.05,10,0)" xlink:href="#ab"/><use transform="matrix(0.05,0,0,0.05,15.949999999999998,0)" xlink:href="#ac"/><use transform="matrix(0.05,0,0,0.05,25.950000000000003,0)" xlink:href="#W"/><use transform="matrix(0.05,0,0,0.05,35.95,0)" xlink:href="#ad"/><use transform="matrix(0.05,0,0,0.05,45.95,0)" xlink:href="#ae"/><use transform="matrix(0.05,0,0,0.05,54.95,0)" xlink:href="#af"/><use transform="matrix(0.05,0,0,0.05,59.95,0)" xlink:href="#Z"/><use transform="matrix(0.05,0,0,0.05,69.95,0)" xlink:href="#X"/><use transform="matrix(0.05,0,0,0.05,73.9,0)" xlink:href="#W"/></g><path fill="#333" d="M30-248c87 1 191-15 191 75 0 78-77 80-158 76V0H30v-248zm33 125c57 0 124 11 124-50 0-59-68-47-124-48v98" id="ag"/><path fill="#333" d="M194 0L95-120 63-95V0H30v-248h33v124l119-124h40L117-140 236 0h-42" id="ah"/><path fill="#333" d="M68-38c1 34 0 65-14 84H32c9-13 17-26 17-46H33v-38h35" id="ai"/><g id="c"><use transform="matrix(0.05,0,0,0.05,0,0)" xlink:href="#ag"/><use transform="matrix(0.05,0,0,0.05,12,0)" xlink:href="#ah"/><use transform="matrix(0.05,0,0,0.05,24,0)" xlink:href="#ai"/></g><path fill="#333" d="M185-189c-5-48-123-54-124 2 14 75 158 14 163 119 3 78-121 87-175 55-17-10-28-26-33-46l33-7c5 56 141 63 141-1 0-78-155-14-162-118-5-82 145-84 179-34 5 7 8 16 11 25" id="aj"/><path fill="#333" d="M117-194c89-4 53 116 60 194h-32v-121c0-31-8-49-39-48C34-167 62-67 57 0H25l-1-190h30c1 10-1 24 2 32 11-22 29-35 61-36" id="ak"/><path fill="#333" d="M177-190C167-65 218 103 67 71c-23-6-38-20-44-43l32-5c15 47 100 32 89-28v-30C133-14 115 1 83 1 29 1 15-40 15-95c0-56 16-97 71-98 29-1 48 16 59 35 1-10 0-23 2-32h30zM94-22c36 0 50-32 50-73 0-42-14-75-50-75-39 0-46 34-46 75s6 73 46 73" id="al"/><g id="d"><use transform="matrix(0.05,0,0,0.05,0,0)" xlink:href="#aj"/><use transform="matrix(0.05,0,0,0.05,12,0)" xlink:href="#af"/><use transform="matrix(0.05,0,0,0.05,17,0)" xlink:href="#ab"/><use transform="matrix(0.05,0,0,0.05,22.95,0)" xlink:href="#X"/><use transform="matrix(0.05,0,0,0.05,26.899999999999995,0)" xlink:href="#ak"/><use transform="matrix(0.05,0,0,0.05,36.9,0)" xlink:href="#al"/></g><path fill="#333" d="M135-143c-3-34-86-38-87 0 15 53 115 12 119 90S17 21 10-45l28-5c4 36 97 45 98 0-10-56-113-15-118-90-4-57 82-63 122-42 12 7 21 19 24 35" id="am"/><path fill="#333" d="M141-36C126-15 110 5 73 4 37 3 15-17 15-53c-1-64 63-63 125-63 3-35-9-54-41-54-24 1-41 7-42 31l-33-3c5-37 33-52 76-52 45 0 72 20 72 64v82c-1 20 7 32 28 27v20c-31 9-61-2-59-35zM48-53c0 20 12 33 32 33 41-3 63-29 60-74-43 2-92-5-92 41" id="an"/><path fill="#333" d="M24 0v-261h32V0H24" id="ao"/><path fill="#333" d="M100-194c63 0 86 42 84 106H49c0 40 14 67 53 68 26 1 43-12 49-29l28 8c-11 28-37 45-77 45C44 4 14-33 15-96c1-61 26-98 85-98zm52 81c6-60-76-77-97-28-3 7-6 17-6 28h103" id="ap"/><path fill="#333" d="M143 0L79-87 56-68V0H24v-261h32v163l83-92h37l-77 82L181 0h-38" id="aq"/><g id="e"><use transform="matrix(0.05,0,0,0.05,0,0)" xlink:href="#am"/><use transform="matrix(0.05,0,0,0.05,9,0)" xlink:href="#an"/><use transform="matrix(0.05,0,0,0.05,19,0)" xlink:href="#ao"/><use transform="matrix(0.05,0,0,0.05,22.95,0)" xlink:href="#ap"/><use transform="matrix(0.05,0,0,0.05,32.95,0)" xlink:href="#am"/><use transform="matrix(0.05,0,0,0.05,41.95,0)" xlink:href="#Z"/><use transform="matrix(0.05,0,0,0.05,51.95,0)" xlink:href="#ab"/><use transform="matrix(0.05,0,0,0.05,57.900000000000006,0)" xlink:href="#an"/><use transform="matrix(0.05,0,0,0.05,67.9,0)" xlink:href="#ak"/><use transform="matrix(0.05,0,0,0.05,77.9,0)" xlink:href="#aq"/></g><path fill="#333" d="M153-248C145-148 188 4 80 4 36 3 13-21 6-62l32-5c4 25 16 42 43 43 27 0 39-20 39-49v-147H72v-28h81" id="ar"/><path fill="#333" d="M140-251c81 0 123 46 123 126C263-46 219 4 140 4 59 4 17-45 17-125s42-126 123-126zm0 227c63 0 89-41 89-101s-29-99-89-99c-61 0-89 39-89 99S79-25 140-24" id="as"/><path fill="#333" d="M190 0L58-211 59 0H30v-248h39L202-35l-2-213h31V0h-41" id="at"/><g id="f"><use transform="matrix(0.05,0,0,0.05,0,0)" xlink:href="#ar"/><use transform="matrix(0.05,0,0,0.05,9,0)" xlink:href="#aj"/><use transform="matrix(0.05,0,0,0.05,21,0)" xlink:href="#as"/><use transform="matrix(0.05,0,0,0.05,35,0)" xlink:href="#at"/></g><g id="g"><use transform="matrix(0.05,0,0,0.05,0,0)" xlink:href="#X"/><use transform="matrix(0.05,0,0,0.05,3.95,0)" xlink:href="#Y"/><use transform="matrix(0.05,0,0,0.05,18.900000000000002,0)" xlink:href="#an"/><use transform="matrix(0.05,0,0,0.05,28.900000000000002,0)" xlink:href="#al"/><use transform="matrix(0.05,0,0,0.05,38.900000000000006,0)" xlink:href="#ap"/><use transform="matrix(0.05,0,0,0.05,48.900000000000006,0)" xlink:href="#Z"/><use transform="matrix(0.05,0,0,0.05,58.900000000000006,0)" xlink:href="#ad"/><use transform="matrix(0.05,0,0,0.05,68.9,0)" xlink:href="#ab"/><use transform="matrix(0.05,0,0,0.05,74.85000000000001,0)" xlink:href="#ao"/></g><g id="h"><use transform="matrix(0.05,0,0,0.05,0,0)" xlink:href="#aj"/><use transform="matrix(0.05,0,0,0.05,12,0)" xlink:href="#af"/><use transform="matrix(0.05,0,0,0.05,17,0)" xlink:href="#ab"/><use transform="matrix(0.05,0,0,0.05,22.95,0)" xlink:href="#X"/><use transform="matrix(0.05,0,0,0.05,26.899999999999995,0)" xlink:href="#ak"/><use transform="matrix(0.05,0,0,0.05,36.9,0)" xlink:href="#al"/></g><path fill="#333" d="M179-190L93 31C79 59 56 82 12 73V49c39 6 53-20 64-50L1-190h34L92-34l54-156h33" id="au"/><g id="i"><use transform="matrix(0.05,0,0,0.05,0,0)" xlink:href="#ae"/><use transform="matrix(0.05,0,0,0.05,9,0)" xlink:href="#an"/><use transform="matrix(0.05,0,0,0.05,19,0)" xlink:href="#af"/><use transform="matrix(0.05,0,0,0.05,24,0)" xlink:href="#ap"/><use transform="matrix(0.05,0,0,0.05,34,0)" xlink:href="#al"/><use transform="matrix(0.05,0,0,0.05,44,0)" xlink:href="#ac"/><use transform="matrix(0.05,0,0,0.05,54,0)" xlink:href="#ab"/><use transform="matrix(0.05,0,0,0.05,59.95,0)" xlink:href="#au"/><use transform="matrix(0.05,0,0,0.05,68.95,0)" xlink:href="#Z"/><use transform="matrix(0.05,0,0,0.05,78.95,0)" xlink:href="#X"/><use transform="matrix(0.05,0,0,0.05,82.9,0)" xlink:href="#W"/><use transform="matrix(0.05,0,0,0.05,92.9,0)" xlink:href="#am"/></g><path fill="#333" d="M205 0l-28-72H64L36 0H1l101-248h38L239 0h-34zm-38-99l-47-123c-12 45-31 82-46 123h93" id="av"/><g id="j"><use transform="matrix(0.05,0,0,0.05,0,0)" xlink:href="#av"/><use transform="matrix(0.05,0,0,0.05,12,0)" xlink:href="#ab"/><use transform="matrix(0.05,0,0,0.05,17.95,0)" xlink:href="#ab"/><use transform="matrix(0.05,0,0,0.05,23.9,0)" xlink:href="#an"/><use transform="matrix(0.05,0,0,0.05,33.9,0)" xlink:href="#au"/></g><path fill="#333" d="M101-234c-31-9-42 10-38 44h38v23H63V0H32v-167H5v-23h27c-7-52 17-82 69-68v24" id="aw"/><g id="k"><use transform="matrix(0.05,0,0,0.05,0,0)" xlink:href="#ac"/><use transform="matrix(0.05,0,0,0.05,10,0)" xlink:href="#aw"/></g><g id="l"><use transform="matrix(0.05,0,0,0.05,0,0)" xlink:href="#aj"/><use transform="matrix(0.05,0,0,0.05,12,0)" xlink:href="#af"/><use transform="matrix(0.05,0,0,0.05,17,0)" xlink:href="#ab"/><use transform="matrix(0.05,0,0,0.05,22.95,0)" xlink:href="#X"/><use transform="matrix(0.05,0,0,0.05,26.899999999999995,0)" xlink:href="#ak"/><use transform="matrix(0.05,0,0,0.05,36.9,0)" xlink:href="#al"/></g><path fill="#333" d="M63-220v92h138v28H63V0H30v-248h175v28H63" id="ax"/><g id="m"><use transform="matrix(0.05,0,0,0.05,0,0)" xlink:href="#ax"/><use transform="matrix(0.05,0,0,0.05,10.950000000000001,0)" xlink:href="#ah"/><use transform="matrix(0.05,0,0,0.05,22.950000000000003,0)" xlink:href="#am"/></g><g id="n"><use transform="matrix(0.05,0,0,0.05,0,0)" xlink:href="#af"/><use transform="matrix(0.05,0,0,0.05,5,0)" xlink:href="#X"/><use transform="matrix(0.05,0,0,0.05,8.95,0)" xlink:href="#af"/><use transform="matrix(0.05,0,0,0.05,13.949999999999998,0)" xlink:href="#ao"/><use transform="matrix(0.05,0,0,0.05,17.9,0)" xlink:href="#ap"/></g><g id="o"><use transform="matrix(0.05,0,0,0.05,0,0)" xlink:href="#aa"/><use transform="matrix(0.05,0,0,0.05,10,0)" xlink:href="#ab"/><use transform="matrix(0.05,0,0,0.05,15.949999999999998,0)" xlink:href="#X"/><use transform="matrix(0.05,0,0,0.05,19.9,0)" xlink:href="#ae"/><use transform="matrix(0.05,0,0,0.05,28.899999999999995,0)" xlink:href="#ap"/></g><path fill="#333" d="M30-248c118-7 216 8 213 122C240-48 200 0 122 0H30v-248zM63-27c89 8 146-16 146-99s-60-101-146-95v194" id="ay"/><g id="p"><use transform="matrix(0.05,0,0,0.05,0,0)" xlink:href="#ay"/><use transform="matrix(0.05,0,0,0.05,12.950000000000001,0)" xlink:href="#ap"/><use transform="matrix(0.05,0,0,0.05,22.950000000000003,0)" xlink:href="#ae"/><use transform="matrix(0.05,0,0,0.05,31.950000000000003,0)" xlink:href="#X"/><use transform="matrix(0.05,0,0,0.05,35.900000000000006,0)" xlink:href="#Y"/><use transform="matrix(0.05,0,0,0.05,50.85000000000001,0)" xlink:href="#an"/><use transform="matrix(0.05,0,0,0.05,60.85,0)" xlink:href="#ao"/></g><g id="q"><use transform="matrix(0.05,0,0,0.05,0,0)" xlink:href="#ab"/><use transform="matrix(0.05,0,0,0.05,5.95,0)" xlink:href="#ap"/><use transform="matrix(0.05,0,0,0.05,15.949999999999998,0)" xlink:href="#ao"/><use transform="matrix(0.05,0,0,0.05,19.9,0)" xlink:href="#an"/><use transform="matrix(0.05,0,0,0.05,29.899999999999995,0)" xlink:href="#af"/><use transform="matrix(0.05,0,0,0.05,34.9,0)" xlink:href="#ap"/><use transform="matrix(0.05,0,0,0.05,44.9,0)" xlink:href="#W"/></g><path fill="#333" d="M115-194c53 0 69 39 70 98 0 66-23 100-70 100C84 3 66-7 56-30L54 0H23l1-261h32v101c10-23 28-34 59-34zm-8 174c40 0 45-34 45-75 0-40-5-75-45-74-42 0-51 32-51 76 0 43 10 73 51 73" id="az"/><g id="r"><use transform="matrix(0.05,0,0,0.05,0,0)" xlink:href="#az"/><use transform="matrix(0.05,0,0,0.05,10,0)" xlink:href="#ab"/><use transform="matrix(0.05,0,0,0.05,15.949999999999998,0)" xlink:href="#an"/><use transform="matrix(0.05,0,0,0.05,25.950000000000003,0)" xlink:href="#ak"/><use transform="matrix(0.05,0,0,0.05,35.95,0)" xlink:href="#W"/><use transform="matrix(0.05,0,0,0.05,45.95,0)" xlink:href="#Z"/><use transform="matrix(0.05,0,0,0.05,55.95,0)" xlink:href="#X"/><use transform="matrix(0.05,0,0,0.05,59.900000000000006,0)" xlink:href="#W"/></g><g id="s"><use transform="matrix(0.05,0,0,0.05,0,0)" xlink:href="#ax"/><use transform="matrix(0.05,0,0,0.05,10.950000000000001,0)" xlink:href="#ah"/><use transform="matrix(0.05,0,0,0.05,22.950000000000003,0)" xlink:href="#ai"/></g><g id="t"><use transform="matrix(0.05,0,0,0.05,0,0)" xlink:href="#W"/><use transform="matrix(0.05,0,0,0.05,10,0)" xlink:href="#X"/><use transform="matrix(0.05,0,0,0.05,13.949999999999998,0)" xlink:href="#Y"/><use transform="matrix(0.05,0,0,0.05,28.899999999999995,0)" xlink:href="#Z"/><use transform="matrix(0.05,0,0,0.05,38.9,0)" xlink:href="#az"/><use transform="matrix(0.05,0,0,0.05,48.9,0)" xlink:href="#ab"/><use transform="matrix(0.05,0,0,0.05,54.85,0)" xlink:href="#an"/><use transform="matrix(0.05,0,0,0.05,64.85,0)" xlink:href="#ak"/><use transform="matrix(0.05,0,0,0.05,74.85,0)" xlink:href="#W"/></g><g id="u"><use transform="matrix(0.05,0,0,0.05,0,0)" xlink:href="#az"/><use transform="matrix(0.05,0,0,0.05,10,0)" xlink:href="#ab"/><use transform="matrix(0.05,0,0,0.05,15.949999999999998,0)" xlink:href="#an"/><use transform="matrix(0.05,0,0,0.05,25.950000000000003,0)" xlink:href="#ak"/><use transform="matrix(0.05,0,0,0.05,35.95,0)" xlink:href="#W"/><use transform="matrix(0.05,0,0,0.05,45.95,0)" xlink:href="#Z"/><use transform="matrix(0.05,0,0,0.05,55.95,0)" xlink:href="#ak"/><use transform="matrix(0.05,0,0,0.05,65.95,0)" xlink:href="#an"/><use transform="matrix(0.05,0,0,0.05,75.95,0)" xlink:href="#Y"/><use transform="matrix(0.05,0,0,0.05,90.9,0)" xlink:href="#ap"/></g><g id="v"><use transform="matrix(0.05,0,0,0.05,0,0)" xlink:href="#W"/><use transform="matrix(0.05,0,0,0.05,10,0)" xlink:href="#X"/><use transform="matrix(0.05,0,0,0.05,13.949999999999998,0)" xlink:href="#Y"/><use transform="matrix(0.05,0,0,0.05,28.899999999999995,0)" xlink:href="#Z"/><use transform="matrix(0.05,0,0,0.05,38.9,0)" xlink:href="#ae"/><use transform="matrix(0.05,0,0,0.05,47.9,0)" xlink:href="#an"/><use transform="matrix(0.05,0,0,0.05,57.900000000000006,0)" xlink:href="#af"/><use transform="matrix(0.05,0,0,0.05,62.900000000000006,0)" xlink:href="#ap"/><use transform="matrix(0.05,0,0,0.05,72.9,0)" xlink:href="#al"/><use transform="matrix(0.05,0,0,0.05,82.9,0)" xlink:href="#ac"/><use transform="matrix(0.05,0,0,0.05,92.9,0)" xlink:href="#ab"/><use transform="matrix(0.05,0,0,0.05,98.85000000000001,0)" xlink:href="#au"/></g><g id="w"><use transform="matrix(0.05,0,0,0.05,0,0)" xlink:href="#ae"/><use transform="matrix(0.05,0,0,0.05,9,0)" xlink:href="#an"/><use transform="matrix(0.05,0,0,0.05,19,0)" xlink:href="#af"/><use transform="matrix(0.05,0,0,0.05,24,0)" xlink:href="#ap"/><use transform="matrix(0.05,0,0,0.05,34,0)" xlink:href="#al"/><use transform="matrix(0.05,0,0,0.05,44,0)" xlink:href="#ac"/><use transform="matrix(0.05,0,0,0.05,54,0)" xlink:href="#ab"/><use transform="matrix(0.05,0,0,0.05,59.95,0)" xlink:href="#au"/><use transform="matrix(0.05,0,0,0.05,68.95,0)" xlink:href="#Z"/><use transform="matrix(0.05,0,0,0.05,78.95,0)" xlink:href="#X"/><use transform="matrix(0.05,0,0,0.05,82.9,0)" xlink:href="#W"/></g><g id="x"><use transform="matrix(0.05,0,0,0.05,0,0)" xlink:href="#ae"/><use transform="matrix(0.05,0,0,0.05,9,0)" xlink:href="#an"/><use transform="matrix(0.05,0,0,0.05,19,0)" xlink:href="#af"/><use transform="matrix(0.05,0,0,0.05,24,0)" xlink:href="#ap"/><use transform="matrix(0.05,0,0,0.05,34,0)" xlink:href="#al"/><use transform="matrix(0.05,0,0,0.05,44,0)" xlink:href="#ac"/><use transform="matrix(0.05,0,0,0.05,54,0)" xlink:href="#ab"/><use transform="matrix(0.05,0,0,0.05,59.95,0)" xlink:href="#au"/><use transform="matrix(0.05,0,0,0.05,68.95,0)" xlink:href="#Z"/><use transform="matrix(0.05,0,0,0.05,78.95,0)" xlink:href="#ak"/><use transform="matrix(0.05,0,0,0.05,88.95,0)" xlink:href="#an"/><use transform="matrix(0.05,0,0,0.05,98.95,0)" xlink:href="#Y"/><use transform="matrix(0.05,0,0,0.05,113.9,0)" xlink:href="#ap"/></g><path fill="#333" d="M108 0H70L1-190h34L89-25l56-165h34" id="aA"/><path fill="#333" d="M206 0h-36l-40-164L89 0H53L-1-190h32L70-26l43-164h34l41 164 42-164h31" id="aB"/><g id="y"><use transform="matrix(0.05,0,0,0.05,0,0)" xlink:href="#aw"/><use transform="matrix(0.05,0,0,0.05,5,0)" xlink:href="#an"/><use transform="matrix(0.05,0,0,0.05,15,0)" xlink:href="#ae"/><use transform="matrix(0.05,0,0,0.05,24,0)" xlink:href="#af"/><use transform="matrix(0.05,0,0,0.05,29,0)" xlink:href="#Z"/><use transform="matrix(0.05,0,0,0.05,39,0)" xlink:href="#aa"/><use transform="matrix(0.05,0,0,0.05,49,0)" xlink:href="#ab"/><use transform="matrix(0.05,0,0,0.05,54.95,0)" xlink:href="#ac"/><use transform="matrix(0.05,0,0,0.05,64.95,0)" xlink:href="#W"/><use transform="matrix(0.05,0,0,0.05,74.95,0)" xlink:href="#ad"/><use transform="matrix(0.05,0,0,0.05,84.95,0)" xlink:href="#ae"/><use transform="matrix(0.05,0,0,0.05,93.95,0)" xlink:href="#af"/><use transform="matrix(0.05,0,0,0.05,98.95,0)" xlink:href="#Z"/><use transform="matrix(0.05,0,0,0.05,108.95,0)" xlink:href="#ab"/><use transform="matrix(0.05,0,0,0.05,114.9,0)" xlink:href="#ap"/><use transform="matrix(0.05,0,0,0.05,124.9,0)" xlink:href="#aA"/><use transform="matrix(0.05,0,0,0.05,133.9,0)" xlink:href="#X"/><use transform="matrix(0.05,0,0,0.05,137.85,0)" xlink:href="#ap"/><use transform="matrix(0.05,0,0,0.05,147.85,0)" xlink:href="#aB"/></g><g id="z"><use transform="matrix(0.05,0,0,0.05,0,0)" xlink:href="#am"/><use transform="matrix(0.05,0,0,0.05,9,0)" xlink:href="#ad"/><use transform="matrix(0.05,0,0,0.05,19,0)" xlink:href="#ab"/><use transform="matrix(0.05,0,0,0.05,24.95,0)" xlink:href="#ab"/><use transform="matrix(0.05,0,0,0.05,30.899999999999995,0)" xlink:href="#ac"/><use transform="matrix(0.05,0,0,0.05,40.9,0)" xlink:href="#al"/><use transform="matrix(0.05,0,0,0.05,50.9,0)" xlink:href="#an"/><use transform="matrix(0.05,0,0,0.05,60.900000000000006,0)" xlink:href="#af"/><use transform="matrix(0.05,0,0,0.05,65.9,0)" xlink:href="#ap"/><use transform="matrix(0.05,0,0,0.05,75.9,0)" xlink:href="#Z"/><use transform="matrix(0.05,0,0,0.05,85.9,0)" xlink:href="#aq"/><use transform="matrix(0.05,0,0,0.05,94.9,0)" xlink:href="#ap"/><use transform="matrix(0.05,0,0,0.05,104.9,0)" xlink:href="#au"/></g><g id="A"><use transform="matrix(0.05,0,0,0.05,0,0)" xlink:href="#ag"/><use transform="matrix(0.05,0,0,0.05,12,0)" xlink:href="#ah"/></g><g id="B"><use transform="matrix(0.05,0,0,0.05,0,0)" xlink:href="#ab"/><use transform="matrix(0.05,0,0,0.05,5.95,0)" xlink:href="#ap"/><use transform="matrix(0.05,0,0,0.05,15.949999999999998,0)" xlink:href="#aA"/><use transform="matrix(0.05,0,0,0.05,24.95,0)" xlink:href="#X"/><use transform="matrix(0.05,0,0,0.05,28.899999999999995,0)" xlink:href="#ap"/><use transform="matrix(0.05,0,0,0.05,38.9,0)" xlink:href="#aB"/><use transform="matrix(0.05,0,0,0.05,51.85,0)" xlink:href="#ap"/><use transform="matrix(0.05,0,0,0.05,61.85,0)" xlink:href="#ab"/><use transform="matrix(0.05,0,0,0.05,67.8,0)" xlink:href="#Z"/><use transform="matrix(0.05,0,0,0.05,77.8,0)" xlink:href="#X"/><use transform="matrix(0.05,0,0,0.05,81.75,0)" xlink:href="#W"/></g><g id="C"><use transform="matrix(0.05,0,0,0.05,0,0)" xlink:href="#ax"/><use transform="matrix(0.05,0,0,0.05,10.950000000000001,0)" xlink:href="#ah"/><use transform="matrix(0.05,0,0,0.05,22.950000000000003,0)" xlink:href="#ai"/></g><g id="D"><use transform="matrix(0.05,0,0,0.05,0,0)" xlink:href="#ad"/><use transform="matrix(0.05,0,0,0.05,10,0)" xlink:href="#aa"/><use transform="matrix(0.05,0,0,0.05,20,0)" xlink:href="#aA"/><use transform="matrix(0.05,0,0,0.05,29,0)" xlink:href="#ac"/><use transform="matrix(0.05,0,0,0.05,39,0)" xlink:href="#af"/><use transform="matrix(0.05,0,0,0.05,44,0)" xlink:href="#ap"/><use transform="matrix(0.05,0,0,0.05,54,0)" xlink:href="#am"/></g><path fill="#333" d="M33 0v-248h34V0H33" id="aC"/><path fill="#333" d="M126-127c33 6 58 20 58 59 0 88-139 92-164 29-3-8-5-16-6-25l32-3c6 27 21 44 54 44 32 0 52-15 52-46 0-38-36-46-79-43v-28c39 1 72-4 72-42 0-27-17-43-46-43-28 0-47 15-49 41l-32-3c6-42 35-63 81-64 48-1 79 21 79 65 0 36-21 52-52 59" id="aD"/><path fill="#333" d="M101-251c82-7 93 87 43 132L82-64C71-53 59-42 53-27h129V0H18c2-99 128-94 128-182 0-28-16-43-45-43s-46 15-49 41l-32-3c6-41 34-60 81-64" id="aE"/><g id="E"><use transform="matrix(0.05,0,0,0.05,0,0)" xlink:href="#aC"/><use transform="matrix(0.05,0,0,0.05,5,0)" xlink:href="#ak"/><use transform="matrix(0.05,0,0,0.05,15,0)" xlink:href="#af"/><use transform="matrix(0.05,0,0,0.05,20,0)" xlink:href="#aD"/><use transform="matrix(0.05,0,0,0.05,30,0)" xlink:href="#aE"/></g><g id="F"><use transform="matrix(0.05,0,0,0.05,0,0)" xlink:href="#W"/><use transform="matrix(0.05,0,0,0.05,10,0)" xlink:href="#ac"/><use transform="matrix(0.05,0,0,0.05,20,0)" xlink:href="#aB"/><use transform="matrix(0.05,0,0,0.05,32.95,0)" xlink:href="#ak"/><use transform="matrix(0.05,0,0,0.05,42.95,0)" xlink:href="#aA"/><use transform="matrix(0.05,0,0,0.05,51.95,0)" xlink:href="#ac"/><use transform="matrix(0.05,0,0,0.05,61.95,0)" xlink:href="#af"/><use transform="matrix(0.05,0,0,0.05,66.95,0)" xlink:href="#ap"/><use transform="matrix(0.05,0,0,0.05,76.95,0)" xlink:href="#am"/></g><path fill="#333" d="M141 0L90-78 38 0H4l68-98-65-92h35l48 74 47-74h35l-64 92 68 98h-35" id="aF"/><g id="G"><use transform="matrix(0.05,0,0,0.05,0,0)" xlink:href="#ab"/><use transform="matrix(0.05,0,0,0.05,5.95,0)" xlink:href="#ap"/><use transform="matrix(0.05,0,0,0.05,15.949999999999998,0)" xlink:href="#aA"/><use transform="matrix(0.05,0,0,0.05,24.95,0)" xlink:href="#X"/><use transform="matrix(0.05,0,0,0.05,28.899999999999995,0)" xlink:href="#ap"/><use transform="matrix(0.05,0,0,0.05,38.9,0)" xlink:href="#aB"/><use transform="matrix(0.05,0,0,0.05,51.85,0)" xlink:href="#Z"/><use transform="matrix(0.05,0,0,0.05,61.85,0)" xlink:href="#af"/><use transform="matrix(0.05,0,0,0.05,66.85,0)" xlink:href="#ap"/><use transform="matrix(0.05,0,0,0.05,76.85,0)" xlink:href="#aF"/><use transform="matrix(0.05,0,0,0.05,85.85,0)" xlink:href="#af"/></g><g id="H"><use transform="matrix(0.05,0,0,0.05,0,0)" xlink:href="#ac"/><use transform="matrix(0.05,0,0,0.05,10,0)" xlink:href="#aA"/><use transform="matrix(0.05,0,0,0.05,19,0)" xlink:href="#ap"/><use transform="matrix(0.05,0,0,0.05,29,0)" xlink:href="#ab"/><use transform="matrix(0.05,0,0,0.05,34.95,0)" xlink:href="#an"/><use transform="matrix(0.05,0,0,0.05,44.95,0)" xlink:href="#ao"/><use transform="matrix(0.05,0,0,0.05,48.900000000000006,0)" xlink:href="#ao"/><use transform="matrix(0.05,0,0,0.05,52.85,0)" xlink:href="#Z"/><use transform="matrix(0.05,0,0,0.05,62.85,0)" xlink:href="#ab"/><use transform="matrix(0.05,0,0,0.05,68.80000000000001,0)" xlink:href="#an"/><use transform="matrix(0.05,0,0,0.05,78.80000000000001,0)" xlink:href="#af"/><use transform="matrix(0.05,0,0,0.05,83.80000000000001,0)" xlink:href="#X"/><use transform="matrix(0.05,0,0,0.05,87.75000000000001,0)" xlink:href="#ak"/><use transform="matrix(0.05,0,0,0.05,97.75000000000001,0)" xlink:href="#al"/></g><g id="I"><use transform="matrix(0.05,0,0,0.05,0,0)" xlink:href="#am"/><use transform="matrix(0.05,0,0,0.05,9,0)" xlink:href="#ad"/><use transform="matrix(0.05,0,0,0.05,19,0)" xlink:href="#Y"/><use transform="matrix(0.05,0,0,0.05,33.95,0)" xlink:href="#Y"/><use transform="matrix(0.05,0,0,0.05,48.900000000000006,0)" xlink:href="#an"/><use transform="matrix(0.05,0,0,0.05,58.900000000000006,0)" xlink:href="#ab"/><use transform="matrix(0.05,0,0,0.05,64.85000000000001,0)" xlink:href="#au"/></g><g id="J"><use transform="matrix(0.05,0,0,0.05,0,0)" xlink:href="#ad"/><use transform="matrix(0.05,0,0,0.05,10,0)" xlink:href="#ak"/><use transform="matrix(0.05,0,0,0.05,20,0)" xlink:href="#X"/><use transform="matrix(0.05,0,0,0.05,23.95,0)" xlink:href="#aF"/><use transform="matrix(0.05,0,0,0.05,32.95,0)" xlink:href="#Z"/><use transform="matrix(0.05,0,0,0.05,42.95,0)" xlink:href="#ab"/><use transform="matrix(0.05,0,0,0.05,48.900000000000006,0)" xlink:href="#ap"/><use transform="matrix(0.05,0,0,0.05,58.900000000000006,0)" xlink:href="#aA"/><use transform="matrix(0.05,0,0,0.05,67.9,0)" xlink:href="#X"/><use transform="matrix(0.05,0,0,0.05,71.85000000000001,0)" xlink:href="#ap"/><use transform="matrix(0.05,0,0,0.05,81.85000000000001,0)" xlink:href="#aB"/><use transform="matrix(0.05,0,0,0.05,94.80000000000001,0)" xlink:href="#Z"/><use transform="matrix(0.05,0,0,0.05,104.80000000000001,0)" xlink:href="#af"/><use transform="matrix(0.05,0,0,0.05,109.80000000000001,0)" xlink:href="#X"/><use transform="matrix(0.05,0,0,0.05,113.75,0)" xlink:href="#Y"/><use transform="matrix(0.05,0,0,0.05,128.70000000000002,0)" xlink:href="#ap"/></g><g id="K"><use transform="matrix(0.05,0,0,0.05,0,0)" xlink:href="#ab"/><use transform="matrix(0.05,0,0,0.05,5.95,0)" xlink:href="#ap"/><use transform="matrix(0.05,0,0,0.05,15.949999999999998,0)" xlink:href="#aA"/><use transform="matrix(0.05,0,0,0.05,24.95,0)" xlink:href="#X"/><use transform="matrix(0.05,0,0,0.05,28.899999999999995,0)" xlink:href="#ap"/><use transform="matrix(0.05,0,0,0.05,38.9,0)" xlink:href="#aB"/><use transform="matrix(0.05,0,0,0.05,51.85,0)" xlink:href="#Z"/><use transform="matrix(0.05,0,0,0.05,61.85,0)" xlink:href="#W"/><use transform="matrix(0.05,0,0,0.05,71.85,0)" xlink:href="#an"/><use transform="matrix(0.05,0,0,0.05,81.85,0)" xlink:href="#af"/><use transform="matrix(0.05,0,0,0.05,86.85,0)" xlink:href="#ap"/></g><g id="L"><use transform="matrix(0.05,0,0,0.05,0,0)" xlink:href="#ay"/><use transform="matrix(0.05,0,0,0.05,12.950000000000001,0)" xlink:href="#an"/><use transform="matrix(0.05,0,0,0.05,22.950000000000003,0)" xlink:href="#af"/><use transform="matrix(0.05,0,0,0.05,27.950000000000003,0)" xlink:href="#ap"/></g><g id="M"><use transform="matrix(0.05,0,0,0.05,0,0)" xlink:href="#W"/><use transform="matrix(0.05,0,0,0.05,10,0)" xlink:href="#X"/><use transform="matrix(0.05,0,0,0.05,13.949999999999998,0)" xlink:href="#Y"/><use transform="matrix(0.05,0,0,0.05,28.899999999999995,0)" xlink:href="#Z"/><use transform="matrix(0.05,0,0,0.05,38.9,0)" xlink:href="#ab"/><use transform="matrix(0.05,0,0,0.05,44.85,0)" xlink:href="#ap"/><use transform="matrix(0.05,0,0,0.05,54.85,0)" xlink:href="#aA"/><use transform="matrix(0.05,0,0,0.05,63.85,0)" xlink:href="#X"/><use transform="matrix(0.05,0,0,0.05,67.8,0)" xlink:href="#ap"/><use transform="matrix(0.05,0,0,0.05,77.8,0)" xlink:href="#aB"/><use transform="matrix(0.05,0,0,0.05,90.75,0)" xlink:href="#ap"/><use transform="matrix(0.05,0,0,0.05,100.75,0)" xlink:href="#ab"/></g><g id="N"><use transform="matrix(0.05,0,0,0.05,0,0)" xlink:href="#ab"/><use transform="matrix(0.05,0,0,0.05,5.95,0)" xlink:href="#ap"/><use transform="matrix(0.05,0,0,0.05,15.949999999999998,0)" xlink:href="#aA"/><use transform="matrix(0.05,0,0,0.05,24.95,0)" xlink:href="#X"/><use transform="matrix(0.05,0,0,0.05,28.899999999999995,0)" xlink:href="#ap"/><use transform="matrix(0.05,0,0,0.05,38.9,0)" xlink:href="#aB"/><use transform="matrix(0.05,0,0,0.05,51.85,0)" xlink:href="#ap"/><use transform="matrix(0.05,0,0,0.05,61.85,0)" xlink:href="#ab"/><use transform="matrix(0.05,0,0,0.05,67.8,0)" xlink:href="#Z"/><use transform="matrix(0.05,0,0,0.05,77.8,0)" xlink:href="#ak"/><use transform="matrix(0.05,0,0,0.05,87.8,0)" xlink:href="#an"/><use transform="matrix(0.05,0,0,0.05,97.8,0)" xlink:href="#Y"/><use transform="matrix(0.05,0,0,0.05,112.75,0)" xlink:href="#ap"/></g><g id="O"><use transform="matrix(0.05,0,0,0.05,0,0)" xlink:href="#W"/><use transform="matrix(0.05,0,0,0.05,10,0)" xlink:href="#X"/><use transform="matrix(0.05,0,0,0.05,13.949999999999998,0)" xlink:href="#Y"/><use transform="matrix(0.05,0,0,0.05,28.899999999999995,0)" xlink:href="#Z"/><use transform="matrix(0.05,0,0,0.05,38.9,0)" xlink:href="#W"/><use transform="matrix(0.05,0,0,0.05,48.9,0)" xlink:href="#an"/><use transform="matrix(0.05,0,0,0.05,58.900000000000006,0)" xlink:href="#af"/><use transform="matrix(0.05,0,0,0.05,63.900000000000006,0)" xlink:href="#ap"/></g><g id="P"><use transform="matrix(0.05,0,0,0.05,0,0)" xlink:href="#W"/><use transform="matrix(0.05,0,0,0.05,10,0)" xlink:href="#an"/><use transform="matrix(0.05,0,0,0.05,20,0)" xlink:href="#af"/><use transform="matrix(0.05,0,0,0.05,25,0)" xlink:href="#ap"/><use transform="matrix(0.05,0,0,0.05,35,0)" xlink:href="#Z"/><use transform="matrix(0.05,0,0,0.05,45,0)" xlink:href="#X"/><use transform="matrix(0.05,0,0,0.05,48.95,0)" xlink:href="#W"/></g><path fill="#333" d="M106-169C34-169 62-67 57 0H25v-261h32l-1 103c12-21 28-36 61-36 89 0 53 116 60 194h-32v-121c2-32-8-49-39-48" id="aG"/><g id="Q"><use transform="matrix(0.05,0,0,0.05,0,0)" xlink:href="#Y"/><use transform="matrix(0.05,0,0,0.05,14.950000000000001,0)" xlink:href="#ac"/><use transform="matrix(0.05,0,0,0.05,24.950000000000003,0)" xlink:href="#ak"/><use transform="matrix(0.05,0,0,0.05,34.95,0)" xlink:href="#af"/><use transform="matrix(0.05,0,0,0.05,39.95,0)" xlink:href="#aG"/><use transform="matrix(0.05,0,0,0.05,49.95,0)" xlink:href="#Z"/><use transform="matrix(0.05,0,0,0.05,59.95,0)" xlink:href="#an"/><use transform="matrix(0.05,0,0,0.05,69.95,0)" xlink:href="#ae"/><use transform="matrix(0.05,0,0,0.05,78.95,0)" xlink:href="#af"/><use transform="matrix(0.05,0,0,0.05,83.95,0)" xlink:href="#ad"/><use transform="matrix(0.05,0,0,0.05,93.95,0)" xlink:href="#an"/><use transform="matrix(0.05,0,0,0.05,103.95,0)" xlink:href="#ao"/></g><path fill="#333" d="M232-93c-1 65-40 97-104 97C67 4 28-28 28-90v-158h33c8 89-33 224 67 224 102 0 64-133 71-224h33v155" id="aH"/><path fill="#333" d="M134-131c28 9 52 24 51 62-1 50-34 73-85 73S17-19 16-69c0-36 21-54 49-61-75-25-45-126 34-121 46 3 78 18 79 63 0 33-17 51-44 57zm-34-11c31 1 46-15 46-44 0-28-17-43-47-42-29 0-46 13-45 42 1 28 16 44 46 44zm1 122c35 0 51-18 51-52 0-30-18-46-53-46-33 0-51 17-51 47 0 34 19 51 53 51" id="aI"/><g id="R"><use transform="matrix(0.05,0,0,0.05,0,0)" xlink:href="#aH"/><use transform="matrix(0.05,0,0,0.05,12.950000000000001,0)" xlink:href="#aC"/><use transform="matrix(0.05,0,0,0.05,17.950000000000003,0)" xlink:href="#ak"/><use transform="matrix(0.05,0,0,0.05,27.950000000000003,0)" xlink:href="#af"/><use transform="matrix(0.05,0,0,0.05,32.95,0)" xlink:href="#aI"/></g><g id="S"><use transform="matrix(0.05,0,0,0.05,0,0)" xlink:href="#Y"/><use transform="matrix(0.05,0,0,0.05,14.950000000000001,0)" xlink:href="#ac"/><use transform="matrix(0.05,0,0,0.05,24.950000000000003,0)" xlink:href="#ak"/><use transform="matrix(0.05,0,0,0.05,34.95,0)" xlink:href="#af"/><use transform="matrix(0.05,0,0,0.05,39.95,0)" xlink:href="#aG"/><use transform="matrix(0.05,0,0,0.05,49.95,0)" xlink:href="#Z"/><use transform="matrix(0.05,0,0,0.05,59.95,0)" xlink:href="#am"/><use transform="matrix(0.05,0,0,0.05,68.95,0)" xlink:href="#af"/><use transform="matrix(0.05,0,0,0.05,73.95,0)" xlink:href="#an"/><use transform="matrix(0.05,0,0,0.05,83.95,0)" xlink:href="#ab"/><use transform="matrix(0.05,0,0,0.05,89.9,0)" xlink:href="#af"/></g><g id="T"><use transform="matrix(0.05,0,0,0.05,0,0)" xlink:href="#ay"/><use transform="matrix(0.05,0,0,0.05,12.950000000000001,0)" xlink:href="#an"/><use transform="matrix(0.05,0,0,0.05,22.950000000000003,0)" xlink:href="#af"/><use transform="matrix(0.05,0,0,0.05,27.950000000000003,0)" xlink:href="#ap"/></g><g id="U"><use transform="matrix(0.05,0,0,0.05,0,0)" xlink:href="#Y"/><use transform="matrix(0.05,0,0,0.05,14.950000000000001,0)" xlink:href="#ac"/><use transform="matrix(0.05,0,0,0.05,24.950000000000003,0)" xlink:href="#ak"/><use transform="matrix(0.05,0,0,0.05,34.95,0)" xlink:href="#af"/><use transform="matrix(0.05,0,0,0.05,39.95,0)" xlink:href="#aG"/><use transform="matrix(0.05,0,0,0.05,49.95,0)" xlink:href="#Z"/><use transform="matrix(0.05,0,0,0.05,59.95,0)" xlink:href="#ak"/><use transform="matrix(0.05,0,0,0.05,69.95,0)" xlink:href="#an"/><use transform="matrix(0.05,0,0,0.05,79.95,0)" xlink:href="#Y"/><use transform="matrix(0.05,0,0,0.05,94.9,0)" xlink:href="#ap"/></g><path fill="#333" d="M33 0v-38h34V0H33" id="aJ"/><g id="V"><use transform="matrix(0.05,0,0,0.05,0,0)" xlink:href="#aJ"/><use transform="matrix(0.05,0,0,0.05,5,0)" xlink:href="#aJ"/><use transform="matrix(0.05,0,0,0.05,10,0)" xlink:href="#aJ"/></g></defs></g></svg>
